<svg id="Layer_1" data-name="Layer 1" xmlns="http://www.w3.org/2000/svg" viewBox="0 0 74 86"><defs><style>.cls-1{fill:#2f488b;}.cls-2{fill:#fff;}</style></defs><rect class="cls-1" width="74" height="86" rx="7.77"/><path class="cls-2" d="M776.54,414.34a4.82,4.82,0,0,1-.44,2,6.15,6.15,0,0,1-1.18,1.68,5.59,5.59,0,0,1-1.71,1.15,5.26,5.26,0,0,1-2.08.42,4.92,4.92,0,0,1-2-.42,5.49,5.49,0,0,1-1.66-1.15,6,6,0,0,1-1.13-1.68,5,5,0,0,1-.42-2,5.25,5.25,0,0,1,.42-2.07,5.65,5.65,0,0,1,1.13-1.72,5.32,5.32,0,0,1,1.66-1.15,4.92,4.92,0,0,1,2-.42,5.26,5.26,0,0,1,2.08.42,5.42,5.42,0,0,1,1.71,1.15,5.78,5.78,0,0,1,1.18,1.72A5.1,5.1,0,0,1,776.54,414.34Z" transform="translate(-715 -394)"/><path class="cls-2" d="M753.52,457.67c-.15-.92-.33-1.81-.51-2.64s-.39-1.62-.62-2.35l-14-41.75a2.66,2.66,0,0,0-1.06-1.34,3.39,3.39,0,0,0-2-.59h-7.12l21.09,60.07S753.52,466.66,753.52,457.67Z" transform="translate(-715 -394)"/></svg>