<svg id="Layer_1" data-name="Layer 1" xmlns="http://www.w3.org/2000/svg" viewBox="0 0 1088.25 440"><defs><style>.cls-1{fill:#fff;}.cls-2{fill:#1e2a3b;}</style></defs><rect class="cls-1" width="1088.25" height="440" rx="117.76"/><path class="cls-2" d="M931.73,643.33V771.14H917.41c-3.15,0-5.57-.5-7.26-1.54s-3-3.06-4-6.07l-3.63-17.41A176.81,176.81,0,0,1,888.39,758a79.55,79.55,0,0,1-14.52,8.7,76.84,76.84,0,0,1-16.23,5.44,87.43,87.43,0,0,1-19.13,1.93,66.08,66.08,0,0,1-20.14-3A46.29,46.29,0,0,1,802,762.09a42.38,42.38,0,0,1-11.07-15.16q-4.08-9.15-4.08-21.69a40.37,40.37,0,0,1,6-20.92q6-10.11,19.41-17.87t35-12.8q21.59-5,53-5.72S907.33,643.33,931.73,643.33Zm-40.8-22.09q-9.27-11-27-11-12,0-20,3a76.46,76.46,0,0,0-14,6.7q-5.89,3.72-10.16,6.73a14.6,14.6,0,0,1-8.43,3,9.31,9.31,0,0,1-5.62-1.72,15.59,15.59,0,0,1-4-4.28l-5.79-10.32a104.52,104.52,0,0,1,32.81-21.94q17.59-7.29,39-7.27a70,70,0,0,1,27.38,5.06,56.39,56.39,0,0,1,20.14,14.18m-15.05,85a273.61,273.61,0,0,0-38,3.55q-15.67,2.81-25.57,7.34T822.28,710a22.93,22.93,0,0,0-4.46,13.79,30.42,30.42,0,0,0,2.37,12.53,23.26,23.26,0,0,0,6.44,8.6,25.86,25.86,0,0,0,9.6,4.91,44.94,44.94,0,0,0,11.88,1.54,66.19,66.19,0,0,0,15.6-1.72,59.34,59.34,0,0,0,13.34-5,74.53,74.53,0,0,0,12-7.79,102.41,102.41,0,0,0,11.16-10.33Z" transform="translate(-455.16 -430.13)"/><path class="cls-2" d="M1428.18,643.33V771.14h-14.32c-3.16,0-5.57-.5-7.27-1.54s-3-3.06-4-6.07L1399,746.12A178.66,178.66,0,0,1,1384.83,758a79.13,79.13,0,0,1-14.51,8.7,76.84,76.84,0,0,1-16.23,5.44,87.56,87.56,0,0,1-19.13,1.93,66.14,66.14,0,0,1-20.15-3,46.46,46.46,0,0,1-16.41-8.95,42.5,42.5,0,0,1-11.07-15.16q-4.08-9.15-4.07-21.69a40.45,40.45,0,0,1,6-20.92q6-10.11,19.41-17.87t35-12.8q21.58-5,53-5.72S1403.78,643.33,1428.18,643.33Zm-40.81-22.09q-9.25-11-27-11-12,0-20,3a76.15,76.15,0,0,0-14,6.7q-5.91,3.72-10.16,6.73a14.65,14.65,0,0,1-8.44,3,9.31,9.31,0,0,1-5.62-1.72,15.41,15.41,0,0,1-4-4.28l-5.8-10.32a104.56,104.56,0,0,1,32.82-21.94q17.6-7.29,39-7.27a70,70,0,0,1,27.38,5.06,56.39,56.39,0,0,1,20.14,14.18m-15.06,85a273.76,273.76,0,0,0-38,3.55q-15.66,2.81-25.57,7.34T1318.72,710a23,23,0,0,0-4.45,13.79,30.26,30.26,0,0,0,2.37,12.53,23.24,23.24,0,0,0,6.43,8.6,26,26,0,0,0,9.61,4.91,44.83,44.83,0,0,0,11.88,1.54,66.31,66.31,0,0,0,15.6-1.72,59.08,59.08,0,0,0,13.33-5,74.09,74.09,0,0,0,12-7.79,102.41,102.41,0,0,0,11.16-10.33Z" transform="translate(-455.16 -430.13)"/><path class="cls-2" d="M1035.4,596.75c6.76-7.91,18.8-10.61,31-10.61a48.8,48.8,0,0,1,11.13,1.27,29.71,29.71,0,0,1,9.54,4l-2.35,24.11c-.73,3-2.56,4.53-5.44,4.53a36.88,36.88,0,0,1-7.44-1.08,52.25,52.25,0,0,0-11.08-1.09,44.1,44.1,0,0,0-15.49,2.55,36.39,36.39,0,0,0-12.17,7.52S1026.58,607.05,1035.4,596.75Zm-19.59,60.3V773.14H983.34V589.41C1014.72,589.41,1015.81,657.05,1015.81,657.05Z" transform="translate(-455.16 -430.13)"/><path class="cls-2" d="M1187.15,634v90.75q0,11.61,5.62,17.23c3.75,3.75,8.58,5.62,14.53,5.62a25.79,25.79,0,0,0,8.78-1.36,36.68,36.68,0,0,0,6.45-3c1.8-1.09,3.34-2.08,4.63-3a6,6,0,0,1,3.34-1.36q2.55,0,4.53,3.08l9.44,15.41a59.8,59.8,0,0,1-20.14,12.25,68.35,68.35,0,0,1-24.3,4.46q-21.78,0-33.47-12.18t-11.69-35V662.23S1165.07,634,1187.15,634Zm-32.28-19.53h-22.12a7.3,7.3,0,0,1-4.91-1.72c-1.34-1.16-2-2.93-2-5.36V594.47l30.11-3.8,7.44-56.78a7.88,7.88,0,0,1,2.46-4.43,7.07,7.07,0,0,1,5-1.72h16.32V591h53.14v23.4h-53.14" transform="translate(-455.16 -430.13)"/><path class="cls-2" d="M784.3,537.25a20.6,20.6,0,0,1-1.89,8.8,25.83,25.83,0,0,1-5.09,7.27,23.83,23.83,0,0,1-7.43,5,22.7,22.7,0,0,1-9,1.82,21.35,21.35,0,0,1-8.79-1.82,23.65,23.65,0,0,1-7.18-5,25,25,0,0,1-4.89-7.27,21.48,21.48,0,0,1-1.81-8.8,22.74,22.74,0,0,1,1.81-9,23.81,23.81,0,0,1,4.89-7.44,22.51,22.51,0,0,1,7.18-5,21.35,21.35,0,0,1,8.79-1.82,23.28,23.28,0,0,1,16.41,6.81,24.52,24.52,0,0,1,5.09,7.44A21.8,21.8,0,0,1,784.3,537.25Z" transform="translate(-455.16 -430.13)"/><path class="cls-2" d="M684.72,724.71c-.65-4-1.42-7.79-2.22-11.41s-1.71-7-2.67-10.17L619.2,522.48a11.41,11.41,0,0,0-4.61-5.79,14.48,14.48,0,0,0-8.66-2.56H575.08l91.27,259.93S684.72,763.62,684.72,724.71Z" transform="translate(-455.16 -430.13)"/></svg>